<?xml version="1.0" standalone="no"?>
<!DOCTYPE svg PUBLIC "-//W3C//DTD SVG 20010904//EN"
 "http://www.w3.org/TR/2001/REC-SVG-20010904/DTD/svg10.dtd">
<svg version="1.0" xmlns="http://www.w3.org/2000/svg"
 width="3616.000000pt" height="3616.000000pt" viewBox="0 0 3616.000000 3616.000000"
 preserveAspectRatio="xMidYMid meet">
<metadata>
Created by potrace 1.14, written by Peter Selinger 2001-2017
</metadata>
<g transform="translate(0.000000,3616.000000) scale(0.100000,-0.100000)"
fill="#000000" stroke="none">
<path d="M1170 21745 c-100 -21 -101 -22 -160 -44 -77 -30 -97 -40 -163 -83
-32 -21 -60 -38 -63 -38 -19 0 -208 -191 -257 -260 -36 -52 -92 -136 -106
-160 -27 -49 -131 -259 -131 -265 0 -4 -6 -21 -14 -38 -17 -36 -76 -204 -81
-228 -2 -9 -11 -39 -20 -65 -9 -27 -18 -58 -20 -69 -2 -11 -17 -76 -34 -145
-16 -69 -32 -138 -35 -155 -3 -16 -7 -41 -10 -55 -4 -23 -23 -144 -31 -200
-13 -90 -16 -114 -21 -171 -3 -35 -8 -93 -12 -129 -9 -93 -9 -3040 1 -3130 4
-41 10 -97 12 -125 2 -27 6 -66 9 -85 3 -19 8 -60 11 -90 4 -30 10 -73 15 -95
5 -22 12 -62 16 -90 3 -27 8 -52 9 -55 2 -3 6 -25 10 -49 3 -24 10 -53 14 -65
5 -11 9 -24 9 -29 0 -7 5 -30 17 -82 6 -26 40 -150 54 -193 5 -18 11 -36 12
-40 1 -4 5 -17 10 -30 5 -13 9 -26 9 -29 0 -9 49 -135 60 -155 6 -10 10 -22
10 -28 0 -31 124 -263 199 -373 14 -21 31 -45 36 -54 56 -88 301 -313 341
-313 7 0 14 -4 16 -8 2 -5 41 -25 88 -45 78 -33 120 -46 205 -64 17 -4 1783
-8 3925 -10 4001 -2 3905 -3 4055 31 63 14 163 59 238 108 32 21 60 38 63 38
20 0 214 198 262 268 88 129 105 157 155 257 16 33 34 63 39 66 5 3 9 9 8 13
-3 9 41 118 52 131 4 5 8 15 8 21 0 7 4 23 9 36 5 13 9 26 10 31 0 4 7 20 15
36 9 16 12 31 9 35 -4 3 -2 6 4 6 5 0 10 6 10 13 0 6 10 45 22 86 13 41 25 82
27 92 2 11 6 27 9 37 21 80 53 228 69 317 3 17 8 41 11 55 6 28 14 86 20 140
2 19 6 51 9 70 3 19 8 64 11 100 4 36 9 88 11 115 5 46 11 169 17 338 1 37 -1
67 -5 67 -4 0 -3 14 2 30 5 17 5 30 0 30 -5 0 -5 13 0 30 5 17 5 30 0 30 -5 0
-5 13 0 30 5 17 5 30 0 30 -5 0 -5 13 0 30 5 17 5 30 0 30 -5 0 -5 13 0 30 5
17 5 30 0 30 -5 0 -5 13 0 30 5 17 5 30 0 30 -5 0 -5 13 0 30 5 17 5 30 0 30
-5 0 -5 13 0 30 5 17 5 30 0 30 -5 0 -5 13 0 30 5 17 5 30 0 30 -5 0 -5 13 0
30 5 17 5 30 0 30 -5 0 -5 13 0 30 5 17 5 30 0 30 -5 0 -5 13 0 30 5 17 5 30
0 30 -5 0 -5 13 0 30 5 17 5 30 0 30 -5 0 -5 13 0 30 5 17 5 30 0 30 -5 0 -5
13 0 30 5 17 5 30 0 30 -5 0 -5 13 0 30 5 17 5 30 0 30 -5 0 -5 13 0 30 5 17
5 30 0 30 -5 0 -5 13 0 30 5 17 5 30 0 30 -5 0 -5 13 0 30 5 17 5 30 0 30 -5
0 -5 13 0 30 5 17 5 30 0 30 -5 0 -5 13 0 30 5 17 5 30 0 30 -5 0 -5 13 0 30
5 17 5 30 0 30 -5 0 -5 13 0 30 5 17 5 30 0 30 -5 0 -5 13 0 30 5 17 5 30 0
30 -5 0 -5 13 0 30 5 17 5 30 0 30 -5 0 -5 13 0 30 5 17 5 30 0 30 -5 0 -5 13
0 30 5 17 5 30 0 30 -5 0 -5 13 0 30 5 17 5 30 0 30 -5 0 -5 13 0 30 5 17 5
30 0 30 -5 0 -5 13 0 30 5 17 5 30 0 30 -5 0 -5 13 0 30 5 17 5 30 0 30 -5 0
-5 13 0 30 5 17 5 30 0 30 -5 0 -5 13 0 30 5 17 5 30 0 30 -5 0 -5 13 0 30 5
17 5 30 0 30 -5 0 -5 13 0 30 5 17 5 30 0 30 -5 0 -5 13 0 30 5 17 5 30 0 30
-5 0 -5 13 0 30 5 17 5 30 0 30 -5 0 -5 13 0 30 5 17 5 30 0 30 -5 0 -5 13 0
30 5 17 5 30 0 30 -5 0 -5 13 0 30 5 17 6 30 2 30 -4 0 -7 14 -7 30 0 17 4 30
8 30 5 0 5 5 1 11 -4 6 -8 55 -10 108 -3 93 -12 246 -15 246 0 0 -2 16 -4 35
-7 89 -39 315 -56 392 -11 47 -14 65 -24 128 -3 19 -8 44 -12 55 -9 27 -11 33
-29 120 -3 17 -9 35 -12 40 -4 6 -8 21 -10 35 -2 13 -8 30 -14 37 -6 7 -8 13
-5 13 7 0 -81 259 -93 275 -4 6 -13 26 -19 46 -21 65 -150 309 -163 309 -5 0
-8 5 -8 10 0 22 -92 139 -175 224 -155 157 -281 231 -495 285 -73 19 -155 20
-3970 19 -3241 0 -3906 -2 -3960 -13z"/>
<path d="M28795 20112 l-30 -3 0 -2052 0 -2052 48 0 c26 0 47 -3 47 -7 0 -4
14 -3 30 2 17 5 30 6 30 2 0 -4 16 -7 35 -7 19 0 35 3 35 7 0 4 11 3 25 -2 15
-6 27 -6 30 0 3 6 15 6 30 0 14 -5 27 -5 30 0 3 5 18 5 35 0 17 -5 30 -5 30 0
0 5 13 5 30 0 18 -5 30 -5 30 0 0 6 10 6 25 0 15 -6 27 -6 30 0 3 6 15 6 30 0
15 -6 27 -6 30 0 3 5 15 6 29 0 12 -4 27 -5 33 -2 7 5 11 644 11 2062 l0 2055
-297 0 c-163 0 -310 -1 -326 -3z"/>
<path d="M21325 19877 c-8 -4 -15 -5 -15 -1 0 3 -7 1 -15 -6 -8 -7 -15 -10
-15 -6 0 17 -109 -52 -155 -98 -48 -50 -95 -128 -95 -160 0 -8 -4 -17 -9 -20
-4 -3 -7 -43 -5 -88 3 -89 5 -98 22 -141 7 -16 12 -33 12 -38 0 -5 4 -9 9 -9
5 0 13 -9 16 -20 11 -33 97 -114 145 -136 74 -34 124 -45 205 -45 47 0 89 2
94 5 4 3 21 8 37 11 16 3 34 7 39 8 22 5 118 69 142 95 14 15 38 45 53 67 24
36 33 55 48 105 3 8 5 56 5 105 1 78 -2 97 -26 146 -54 113 -176 206 -298 229
-60 12 -172 10 -194 -3z"/>
<path d="M30384 19874 c-181 -53 -298 -211 -289 -391 5 -109 37 -183 108 -254
67 -67 100 -86 187 -109 100 -27 277 -3 351 47 122 84 179 182 185 320 4 129
-37 214 -152 313 -32 28 -115 70 -154 77 -55 10 -197 9 -236 -3z"/>
<path d="M12893 19852 l-303 -2 0 -1924 c0 -1915 0 -1924 20 -1929 11 -3 20
-1 20 3 0 5 14 5 30 0 17 -5 30 -5 30 0 0 5 13 5 30 0 18 -5 30 -5 30 0 0 6
10 6 25 0 15 -6 26 -6 30 0 4 6 13 7 24 1 10 -6 23 -6 31 -1 8 5 21 5 30 0 9
-5 23 -4 32 1 10 6 19 6 23 0 3 -7 15 -7 30 -1 15 6 27 6 30 0 3 -6 15 -6 30
0 13 5 26 6 29 2 5 -9 81 -6 96 3 6 3 10 3 10 -2 0 -9 122 -9 137 0 5 3 15 2
23 -3 8 -5 21 -5 31 1 12 6 20 5 24 -1 4 -6 11 -8 16 -4 14 8 99 10 99 2 0 -4
14 -3 30 2 17 5 30 6 30 2 0 -4 16 -7 35 -7 19 0 35 3 35 7 0 4 11 3 25 -2 15
-6 27 -6 30 0 3 6 15 6 30 0 14 -5 27 -5 30 0 3 5 18 5 35 0 17 -5 30 -5 30 0
0 5 13 5 30 0 18 -5 30 -5 30 0 0 6 10 6 25 0 15 -6 27 -6 30 0 3 6 15 6 29 0
13 -5 27 -6 30 -3 9 9 66 9 66 0 0 -5 4 -6 10 -2 5 3 42 8 82 10 40 3 91 7
113 10 22 3 61 7 86 10 47 6 71 10 119 20 14 3 36 7 50 10 98 18 154 35 275
83 203 81 377 214 483 371 20 31 40 58 45 59 4 2 7 11 7 20 0 8 6 23 13 31 15
17 70 161 62 161 -2 0 0 12 6 28 33 85 43 404 15 482 -3 8 -8 26 -10 40 -19
103 -120 305 -187 371 -9 9 -24 27 -35 40 -26 32 -132 120 -169 140 -127 70
-227 113 -285 124 -3 1 -20 4 -37 8 -18 4 -47 10 -65 13 l-32 6 25 14 c13 7
31 13 39 14 15 0 201 88 210 99 3 3 28 21 55 40 74 50 199 183 239 254 35 64
74 157 82 199 2 13 7 34 10 48 12 46 13 304 3 355 -6 28 -12 60 -13 72 -1 12
-5 25 -9 29 -4 4 -7 14 -7 21 0 24 -60 153 -98 213 -78 119 -234 253 -380 325
-92 45 -253 95 -352 110 -19 2 -62 9 -95 14 -33 5 -172 10 -310 11 -137 1
-374 2 -525 3 -151 1 -411 1 -577 -1z m1132 -596 c33 -3 60 -6 60 -7 0 -1 14
-3 30 -4 113 -11 261 -75 340 -146 46 -43 104 -133 111 -174 1 -5 5 -26 9 -45
11 -51 12 -148 3 -198 -9 -51 -57 -162 -69 -162 -5 0 -9 -5 -9 -12 0 -21 -102
-106 -163 -138 -60 -31 -107 -47 -192 -64 -70 -15 -190 -20 -520 -20 l-350 -1
-1 485 c0 267 1 487 2 490 3 7 671 3 749 -4z m165 -1571 c14 -3 43 -8 65 -11
136 -17 290 -82 364 -154 46 -45 120 -174 107 -187 -3 -4 -1 -12 5 -20 17 -20
20 -228 4 -300 -18 -82 -57 -158 -108 -211 -61 -63 -160 -129 -207 -137 -3 0
-14 -6 -25 -11 -46 -25 -188 -51 -329 -60 -72 -5 -710 -9 -776 -5 -13 1 -15
68 -14 554 1 303 2 553 3 553 4 5 891 -5 911 -11z"/>
<path d="M25843 19852 l-153 -3 0 -1923 c0 -1701 2 -1925 15 -1930 8 -3 15 -1
15 4 0 5 12 5 29 0 15 -4 34 -4 42 0 7 5 18 6 24 2 10 -7 123 -5 134 3 4 2 13
0 21 -5 8 -5 21 -5 30 0 9 5 22 5 30 0 8 -5 21 -5 31 1 11 6 20 5 24 -1 3 -6
15 -6 30 0 15 6 27 6 30 0 3 -6 15 -6 30 0 14 5 27 5 30 0 3 -5 18 -5 35 0 17
5 32 5 35 0 3 -5 16 -5 30 0 14 5 27 5 30 1 3 -5 13 -7 23 -4 17 4 18 45 17
796 -1 436 1 798 3 804 2 7 9 10 14 7 6 -4 30 -6 54 -5 57 2 61 2 114 0 25 0
50 0 55 1 6 1 15 1 20 0 6 -1 30 -1 55 -1 57 1 66 1 182 0 54 0 102 2 108 6 5
3 10 3 10 -2 0 -7 116 -9 145 -3 6 1 12 2 15 1 17 -7 150 -4 150 2 0 5 5 5 11
1 14 -8 134 -8 148 1 6 3 11 3 11 -2 0 -6 518 -9 595 -4 10 1 14 605 4 615 -3
3 -30 6 -60 6 -85 1 -262 1 -279 1 -8 0 -62 0 -120 0 -58 0 -112 0 -120 0 -8
0 -62 0 -120 0 -58 0 -112 0 -120 0 -8 0 -62 0 -120 0 -58 0 -112 0 -120 0 -8
0 -62 0 -120 0 -58 0 -112 0 -120 0 -12 0 -168 0 -240 1 -8 0 -20 -1 -25 -2
-6 -1 -37 -2 -70 -1 l-60 1 1 497 c1 274 2 501 3 506 0 4 405 7 899 7 l898 0
0 310 0 310 -176 0 c-96 1 -587 2 -1090 3 -503 1 -984 1 -1067 -1z"/>
<path d="M17368 18668 c-32 -4 -83 -14 -115 -23 -78 -22 -74 -20 -108 -35 -16
-7 -33 -13 -37 -12 -5 1 -8 -2 -8 -8 0 -5 -6 -10 -13 -10 -38 0 -203 -135
-263 -216 -16 -22 -31 -41 -34 -44 -6 -6 -29 -46 -47 -82 -8 -15 -18 -30 -24
-33 -5 -4 -9 74 -9 199 l0 206 -147 0 c-392 2 -497 0 -502 -9 -5 -7 -6 -2529
-2 -2587 1 -13 61 -25 61 -13 0 4 13 4 29 -1 15 -4 34 -4 42 0 7 5 18 6 24 2
10 -7 123 -5 134 3 4 2 13 0 21 -5 8 -5 21 -5 30 0 9 5 22 5 30 0 8 -5 21 -5
31 1 11 6 20 5 24 -1 3 -6 15 -6 30 0 15 6 27 6 30 0 3 -6 15 -6 30 0 15 6 27
6 30 0 3 -5 15 -6 28 -1 13 5 30 5 38 1 8 -5 20 -5 27 -2 8 6 12 199 15 752 1
410 6 756 10 770 4 14 9 39 13 55 13 65 94 212 147 266 75 76 135 122 180 136
9 3 17 9 17 13 0 5 15 12 33 15 17 4 38 12 45 17 6 6 12 7 12 4 0 -4 8 -3 18
3 40 21 218 31 327 18 91 -11 106 -14 155 -26 25 -6 48 -11 51 -11 3 0 6 141
6 314 l1 315 -72 16 c-80 19 -203 25 -288 13z"/>
<path d="M19178 18675 c-2 -1 -39 -5 -83 -9 -44 -3 -90 -8 -101 -10 -12 -2
-38 -7 -59 -10 -57 -9 -179 -38 -190 -44 -5 -4 -14 -7 -20 -8 -62 -10 -297
-118 -333 -151 -7 -7 -17 -13 -22 -13 -5 0 -15 -6 -22 -12 -7 -7 -33 -29 -58
-49 -25 -21 -63 -53 -85 -73 l-39 -35 29 -32 c66 -69 306 -304 313 -307 5 -1
28 16 53 38 24 22 48 40 52 40 4 0 13 5 20 10 80 67 294 150 432 167 129 17
294 6 390 -26 167 -54 276 -148 319 -275 28 -82 42 -231 22 -243 -5 -4 -97 -7
-205 -9 -217 -3 -516 -17 -516 -24 0 -1 -16 -3 -35 -5 -19 -2 -48 -6 -64 -9
-24 -4 -66 -11 -131 -21 -5 -1 -12 -3 -15 -4 -3 -1 -16 -4 -30 -7 -49 -8 -216
-57 -260 -76 -88 -38 -116 -53 -195 -104 -224 -144 -337 -350 -348 -632 -1
-28 0 -52 3 -52 3 0 6 -27 6 -61 1 -33 8 -82 14 -107 15 -53 70 -175 82 -180
4 -2 8 -8 8 -14 0 -13 74 -103 120 -146 80 -74 275 -182 355 -196 11 -1 27 -6
35 -9 24 -9 100 -22 195 -35 91 -12 339 -3 366 14 3 2 21 6 40 9 70 12 209 65
276 105 83 50 171 131 243 223 29 37 55 65 58 62 3 -3 6 -81 6 -174 1 -93 4
-172 8 -176 10 -10 68 -13 68 -3 0 4 11 4 23 -1 13 -5 30 -5 37 -1 8 5 18 6
24 3 12 -8 211 -7 223 0 5 3 15 2 23 -3 8 -5 21 -5 30 0 9 5 22 5 30 0 8 -5
21 -5 31 1 10 5 20 5 23 1 3 -5 19 -7 36 -4 l31 4 -2 882 c-1 706 -4 895 -15
951 -7 39 -16 86 -19 105 -18 111 -103 302 -174 390 -38 48 -109 120 -118 120
-3 0 -18 11 -34 25 -31 25 -209 118 -209 108 0 -3 -7 0 -15 7 -8 7 -15 9 -15
5 0 -4 -6 -3 -12 2 -14 11 -109 36 -119 31 -3 -2 -12 2 -20 8 -8 7 -41 15 -74
19 -33 3 -69 8 -80 11 -20 5 -302 13 -307 9z m585 -1625 c-2 -153 -8 -191 -41
-277 -74 -194 -227 -308 -457 -338 -391 -53 -655 116 -608 389 12 69 15 76 80
142 67 70 283 159 408 170 17 1 30 3 30 4 0 3 46 8 125 15 41 3 75 7 76 8 1 1
89 2 196 2 l193 0 -2 -115z"/>
<path d="M23800 18669 c-30 -4 -66 -9 -80 -13 -14 -3 -36 -8 -49 -11 -152 -30
-314 -141 -439 -301 -35 -45 -73 -105 -83 -132 -5 -14 -12 -22 -16 -19 -3 4
-6 99 -6 212 l0 205 -66 1 c-190 2 -546 -2 -550 -7 -6 -5 -8 -2561 -2 -2587 2
-10 9 -16 17 -13 7 3 16 1 19 -4 3 -6 15 -6 30 0 14 5 25 6 25 2 0 -8 57 -8
66 1 3 3 17 2 30 -3 15 -6 34 -6 49 0 14 5 25 6 25 2 0 -9 124 -7 138 2 6 3
13 2 17 -3 3 -7 15 -7 30 -1 15 6 27 6 30 -1 4 -5 11 -6 17 -3 16 10 50 11 75
2 12 -4 25 -3 28 2 3 6 15 6 30 0 l25 -10 -2 135 c-2 74 0 135 3 135 4 0 4 14
0 32 -4 17 -4 57 -1 90 3 32 2 65 -2 72 -5 8 -4 17 2 21 6 4 7 13 2 23 -5 9
-7 28 -6 42 3 28 4 98 3 182 0 32 2 62 6 68 3 5 2 10 -2 10 -5 0 -6 27 -3 60
3 33 2 67 -2 74 -5 8 -4 17 1 21 6 3 8 12 4 21 -9 23 -9 244 0 244 5 0 5 5 2
11 -4 6 -6 43 -5 82 2 68 1 79 -1 110 -2 20 10 150 16 175 3 12 7 31 10 43 12
54 54 170 65 179 3 3 16 21 28 41 60 98 208 194 333 215 56 9 226 11 259 2 14
-4 36 -9 49 -12 12 -3 29 -10 37 -17 8 -6 14 -9 14 -5 0 7 9 -1 85 -68 74 -66
145 -215 160 -338 3 -21 8 -57 11 -80 4 -24 7 -382 8 -796 2 -643 4 -755 17
-762 8 -6 15 -6 17 0 2 5 13 5 26 0 15 -5 27 -5 35 3 6 6 11 7 11 1 0 -5 51
-9 120 -9 66 0 120 4 120 8 0 5 4 5 10 2 14 -9 90 -12 90 -3 0 3 13 3 30 -2
17 -5 32 -5 35 0 3 5 15 6 28 1 12 -5 32 -5 45 0 12 5 22 5 22 0 0 -4 11 -6
25 -3 l26 4 -4 917 c-2 504 -7 932 -11 951 -3 19 -11 56 -17 81 -6 26 -12 53
-13 60 -7 36 -29 105 -36 114 -5 6 -9 15 -9 20 -2 21 -64 140 -77 148 -8 4
-14 14 -14 22 0 19 -135 155 -191 193 -53 36 -199 114 -199 106 0 -2 -13 2
-30 11 -16 8 -32 15 -35 15 -3 0 -6 0 -7 1 -12 3 -100 19 -143 25 -52 8 -248
10 -305 3z"/>
<path d="M21117 18610 c-10 -4 -12 -283 -12 -1305 l0 -1300 38 0 c20 0 37 -3
37 -7 0 -4 14 -3 30 2 17 5 30 6 30 2 0 -4 16 -7 35 -7 19 0 35 3 35 7 0 4 11
3 25 -2 15 -6 27 -6 30 0 3 6 15 6 30 0 15 -6 27 -6 30 0 3 6 15 6 30 0 15 -6
27 -6 30 0 3 6 15 6 30 0 15 -6 27 -6 30 0 3 5 15 6 28 1 13 -5 30 -5 39 0 10
6 19 6 23 0 4 -7 15 -7 30 -1 14 5 25 6 25 2 0 -4 15 -6 34 -4 l33 4 -1 111
c-1 62 2 118 7 125 5 6 6 12 1 12 -11 0 -11 211 0 228 4 7 4 12 -1 12 -10 0
-10 211 1 228 4 7 4 12 -1 12 -10 0 -10 211 1 228 4 7 4 12 -1 12 -4 0 -7 51
-5 112 1 62 2 119 2 126 0 6 0 59 0 117 0 58 0 112 0 120 0 8 0 62 0 120 0 58
0 111 0 118 0 6 -1 71 -3 142 -1 72 1 136 6 143 5 6 6 12 1 12 -11 0 -11 321
0 338 4 7 4 12 -1 12 -4 0 -8 61 -7 136 1 96 -3 137 -11 140 -17 7 -613 10
-628 4z"/>
<path d="M30260 18612 l-76 -3 2 -1297 c0 -713 2 -1301 3 -1306 0 -4 8 -6 16
-2 8 3 15 2 15 -2 0 -8 118 -7 126 1 3 3 17 2 30 -3 15 -6 34 -6 49 0 14 5 25
6 25 2 0 -9 124 -7 138 2 6 3 13 2 17 -3 3 -7 15 -7 30 -1 15 6 27 6 30 0 4
-6 13 -7 23 -1 21 11 33 11 53 1 8 -5 21 -5 29 0 8 5 21 5 30 0 9 -5 21 -6 26
-2 7 5 10 451 10 1310 l0 1302 -86 0 c-47 0 -159 1 -250 3 -91 1 -199 1 -240
-1z"/>
<path d="M31448 18612 l-87 -3 37 -52 c20 -29 39 -54 42 -57 3 -3 18 -23 35
-45 16 -22 35 -46 42 -53 7 -7 13 -17 13 -21 0 -4 8 -16 18 -27 9 -10 42 -53
72 -94 30 -41 58 -76 62 -78 5 -2 8 -10 8 -17 0 -7 4 -15 8 -17 5 -1 28 -30
53 -63 24 -33 46 -62 49 -65 3 -3 17 -21 30 -40 14 -19 28 -39 32 -45 5 -5 28
-37 53 -70 25 -33 53 -71 64 -85 10 -14 62 -83 115 -155 53 -71 108 -145 124
-163 15 -19 30 -39 34 -46 7 -12 -257 -380 -286 -398 -6 -4 -8 -8 -4 -8 5 0
-1 -10 -11 -22 -11 -13 -58 -75 -104 -138 -47 -63 -92 -124 -101 -135 -25 -31
-239 -318 -256 -342 -8 -11 -61 -82 -117 -157 -57 -75 -103 -141 -103 -148 0
-6 -3 -8 -7 -5 -3 4 -15 -7 -25 -23 -22 -37 -23 -44 -3 -36 8 3 15 1 15 -4 0
-6 9 -6 25 0 13 5 26 6 29 2 5 -9 81 -6 96 3 6 3 10 2 10 -4 0 -6 11 -6 30 -1
17 5 30 6 30 2 0 -8 53 -8 66 1 6 3 16 2 24 -3 7 -4 24 -4 36 0 14 6 26 5 29
0 3 -5 13 -6 22 -3 14 5 78 8 86 3 8 -5 77 -4 77 2 0 4 14 3 30 -2 18 -5 30
-5 30 0 0 6 10 6 25 0 15 -6 27 -6 30 0 3 5 15 6 29 0 21 -8 32 4 147 162 68
93 129 175 134 182 6 6 18 22 27 36 17 25 229 316 245 335 21 26 71 95 102
140 37 54 60 80 65 74 15 -18 167 -231 189 -265 16 -24 33 -44 38 -44 5 0 9
-7 9 -15 0 -8 5 -15 10 -15 6 0 10 -6 10 -14 0 -8 4 -16 8 -18 4 -1 37 -43 72
-93 79 -109 81 -111 103 -136 9 -10 17 -22 17 -26 0 -7 79 -115 90 -123 4 -3
9 -10 11 -15 2 -6 29 -46 59 -88 45 -63 59 -76 78 -73 12 2 22 0 22 -3 0 -3
16 -6 35 -6 19 0 35 3 35 7 0 4 11 3 25 -2 15 -6 26 -6 30 0 4 6 13 7 24 1 9
-5 22 -6 28 -3 13 8 81 7 90 -2 3 -3 13 -1 22 4 10 5 23 5 31 0 8 -5 21 -5 31
1 11 6 20 5 24 -1 3 -6 15 -6 30 0 15 6 27 6 30 0 3 -6 15 -6 30 0 15 6 27 6
30 0 3 -5 15 -6 29 0 12 4 29 4 36 0 8 -5 21 -5 30 0 9 5 22 5 30 0 8 -5 21
-5 31 0 9 5 19 7 23 3 8 -8 76 -10 76 -2 0 3 -8 15 -17 27 -45 52 -53 63 -53
67 0 4 -37 54 -96 130 -20 26 -133 177 -179 240 -25 35 -224 300 -232 310 -5
6 -30 39 -56 75 -27 36 -54 72 -60 80 -7 8 -23 31 -37 50 -13 19 -27 37 -30
40 -3 3 -17 21 -30 40 -13 19 -30 42 -37 50 -31 35 -63 78 -63 84 0 7 -5 14
-44 58 -14 15 -33 41 -42 58 -10 16 -22 30 -26 30 -4 0 -8 5 -8 11 0 6 -7 17
-15 25 -21 22 -19 36 13 76 15 19 36 47 47 62 11 16 38 52 60 81 22 29 48 64
57 77 15 21 131 179 230 313 20 28 44 58 52 68 9 9 16 19 16 21 0 3 60 85 133
183 226 304 257 346 253 350 -6 6 -725 5 -735 -1 -5 -4 -73 -95 -152 -204 -78
-108 -162 -224 -186 -257 -24 -33 -61 -85 -83 -115 -22 -30 -43 -59 -48 -65
-4 -5 -28 -38 -52 -72 -34 -49 -46 -60 -57 -52 -7 7 -13 17 -13 24 0 8 -3 15
-7 17 -9 4 -53 65 -53 73 0 3 -18 30 -40 60 -22 30 -40 58 -40 63 0 5 -9 17
-20 27 -11 10 -20 24 -20 31 0 7 -3 14 -7 16 -12 5 -53 66 -53 78 0 5 -4 10
-8 10 -5 0 -14 10 -21 23 -11 22 -17 30 -76 118 -16 24 -34 52 -40 61 -5 9
-32 51 -60 92 l-50 75 -185 1 c-102 0 -241 2 -310 3 -69 1 -164 1 -212 -1z"/>
</g>
</svg>
